<svg width="14" height="9" fill="none"
 xmlns="http://www.w3.org/2000/svg">
 <path d="m13.867 5.806-1.933-1.524c-.118-.094-.118-.244 0-.338l1.933-1.524c.117-.094.164-.252.11-.354-.056-.102-.22-.133-.362-.07l-2.31.919c-.141.055-.267-.016-.298-.165L10.66.283c-.016-.15-.134-.267-.252-.267-.11 0-.235.118-.25.267L9.811 2.75c-.015.15-.149.22-.298.165l-2.255-.92a.811.811 0 0 0-.51 0l-2.28.904c-.14.055-.266-.016-.298-.165L3.833.267C3.818.117 3.7 0 3.582 0s-.236.118-.251.267l-.338 2.467c-.016.15-.15.22-.299.165l-2.31-.92c-.141-.054-.306-.015-.361.072-.055.102-.008.259.11.353l1.933 1.524c.117.095.117.244 0 .338L.133 5.79c-.118.095-.165.26-.11.37.055.11.22.157.361.102l2.294-.912c.142-.055.268.016.291.165l.322 2.483c.016.15.15.267.291.267s.267-.118.29-.267l.323-2.483c.016-.149.15-.22.29-.165l2.248.904a.81.81 0 0 0 .51 0l2.255-.904c.142-.055.267.016.29.165l.339 2.483c.015.15.149.267.29.267.142 0 .268-.118.291-.267l.322-2.483c.016-.149.15-.22.29-.165l2.287.92c.142.055.299.008.362-.102.07-.103.015-.275-.102-.362ZM8.931 4.298 7.22 5.61a.378.378 0 0 1-.44 0L5.075 4.298c-.118-.095-.118-.244 0-.338l1.713-1.352c.117-.094.314-.094.424 0L8.925 3.96c.125.094.125.243.007.338Z" fill="#000"/></svg>