<svg width="12" height="12" viewBox="0 0 12 12" fill="none" xmlns="http://www.w3.org/2000/svg">
<path d="M10.2246 10.1238H8.44655V7.36673C8.44655 6.70929 8.4347 5.86295 7.52179 5.86295C6.59574 5.86295 6.45405 6.57926 6.45405 7.31886V10.1236H4.67601V4.45399H6.38292V5.2288H6.40682C6.57764 4.93961 6.82448 4.70171 7.12105 4.54043C7.41762 4.37915 7.75282 4.30054 8.09094 4.31297C9.89305 4.31297 10.2253 5.48664 10.2253 7.01352L10.2246 10.1238ZM2.66981 3.679C2.46574 3.67904 2.26623 3.61915 2.09653 3.50692C1.92683 3.39469 1.79456 3.23516 1.71644 3.04849C1.63831 2.86182 1.61783 2.65641 1.65761 2.45822C1.69738 2.26003 1.79562 2.07797 1.9399 1.93507C2.08418 1.79216 2.26801 1.69483 2.46815 1.65537C2.6683 1.61591 2.87576 1.63611 3.06431 1.7134C3.25287 1.79069 3.41404 1.92161 3.52744 2.0896C3.64085 2.25759 3.7014 2.45511 3.70144 2.65717C3.70146 2.79133 3.6748 2.92419 3.62296 3.04815C3.57113 3.17211 3.49516 3.28475 3.39936 3.37964C3.30357 3.47452 3.18983 3.5498 3.06465 3.60116C2.93948 3.65253 2.80531 3.67898 2.66981 3.679ZM3.55882 10.1238H1.77895V4.45399H3.55882V10.1238ZM11.111 0.0008095H0.885495C0.653405 -0.00178384 0.429759 0.0869638 0.26372 0.24755C0.0976811 0.408137 0.00283253 0.627424 0 0.857226V11.024C0.00273558 11.2539 0.0975285 11.4734 0.263562 11.6341C0.429595 11.7949 0.65329 11.8838 0.885495 11.8813H11.111C11.3437 11.8842 11.568 11.7956 11.7347 11.6348C11.9014 11.4741 11.9968 11.2544 12 11.024V0.856493C11.9967 0.626235 11.9012 0.406698 11.7345 0.246116C11.5678 0.0855329 11.3435 -0.00296116 11.111 7.56558e-05" fill="#0073B1"/>
</svg>
