<svg width="12" height="12" fill="none" xmlns="http://www.w3.org/2000/svg"><path d="M15.095 39.501c18.113 0 28.02-15.006 28.02-28.02 0-.426 0-.85-.028-1.273A20.036 20.036 0 0 0 48 5.11a19.63 19.63 0 0 1-5.656 1.55 9.88 9.88 0 0 0 4.33-5.447 19.73 19.73 0 0 1-6.254 2.39 9.857 9.857 0 0 0-16.783 8.982A27.96 27.96 0 0 1 3.341 2.295 9.855 9.855 0 0 0 6.39 15.443a9.761 9.761 0 0 1-4.47-1.233v.125a9.851 9.851 0 0 0 7.9 9.654 9.832 9.832 0 0 1-4.446.169 9.861 9.861 0 0 0 9.2 6.839A19.759 19.759 0 0 1 0 35.078a27.883 27.883 0 0 0 15.095 4.416" fill="#1DA1F2"/></svg>